<?xml version="1.0" encoding="UTF-8" standalone="no"?>
<!DOCTYPE svg PUBLIC "-//W3C//DTD SVG 1.1//EN"
 "http://www.w3.org/Graphics/SVG/1.1/DTD/svg11.dtd">
<!-- Generated by graphviz version 7.1.0 (20230121.1956)
 -->
<!-- Pages: 1 -->
<svg width="447pt" height="111pt"
 viewBox="0.00 0.00 447.00 111.50" xmlns="http://www.w3.org/2000/svg" xmlns:xlink="http://www.w3.org/1999/xlink">
<g id="graph0" class="graph" transform="scale(1 1) rotate(0) translate(4 107.5)">
<polygon fill="white" stroke="none" points="-4,4 -4,-107.5 443,-107.5 443,4 -4,4"/>
<!-- x&#45;distance -->
<g id="node1" class="node">
<title>x&#45;distance</title>
<polygon fill="lightgray" stroke="black" points="53,-103.5 0,-103.5 0,-85.5 53,-85.5 53,-103.5"/>
<text text-anchor="middle" x="26.5" y="-92.3" font-family="Times,serif" font-size="9.00">x&#45;distance</text>
</g>
<!-- top y&#45;distance -->
<g id="node2" class="node">
<title>top y&#45;distance</title>
<polygon fill="lightgray" stroke="black" points="137.5,-103.5 71.5,-103.5 71.5,-85.5 137.5,-85.5 137.5,-103.5"/>
<text text-anchor="middle" x="104.5" y="-92.3" font-family="Times,serif" font-size="9.00">top y&#45;distance</text>
</g>
<!-- jump -->
<g id="node7" class="node">
<title>jump</title>
<ellipse fill="lightblue" stroke="black" cx="284.5" cy="-24.75" rx="25" ry="25"/>
<text text-anchor="middle" x="284.5" y="-22.55" font-family="Times,serif" font-size="9.00">jump</text>
</g>
<!-- top y&#45;distance&#45;&gt;jump -->
<g id="edge1" class="edge">
<title>top y&#45;distance&#45;&gt;jump</title>
<path fill="none" stroke="green" stroke-width="0.45" d="M126.93,-85.05C158.29,-73.25 215.43,-51.74 251.61,-38.13"/>
<polygon fill="green" stroke="green" stroke-width="0.45" points="252.46,-41.55 260.58,-34.75 249.99,-35 252.46,-41.55"/>
</g>
<!-- bottom y&#45;distance -->
<g id="node3" class="node">
<title>bottom y&#45;distance</title>
<polygon fill="lightgray" stroke="black" points="235.5,-103.5 155.5,-103.5 155.5,-85.5 235.5,-85.5 235.5,-103.5"/>
<text text-anchor="middle" x="195.5" y="-92.3" font-family="Times,serif" font-size="9.00">bottom y&#45;distance</text>
</g>
<!-- bottom y&#45;distance&#45;&gt;jump -->
<g id="edge2" class="edge">
<title>bottom y&#45;distance&#45;&gt;jump</title>
<path fill="none" stroke="red" stroke-width="0.46" d="M206.41,-85.19C218.82,-75.74 239.57,-59.95 256.56,-47.02"/>
<polygon fill="red" stroke="red" stroke-width="0.46" points="258.64,-49.83 264.48,-40.99 254.4,-44.26 258.64,-49.83"/>
</g>
<!-- pipe velocity -->
<g id="node4" class="node">
<title>pipe velocity</title>
<polygon fill="lightgray" stroke="black" points="315.5,-103.5 253.5,-103.5 253.5,-85.5 315.5,-85.5 315.5,-103.5"/>
<text text-anchor="middle" x="284.5" y="-92.3" font-family="Times,serif" font-size="9.00">pipe velocity</text>
</g>
<!-- pipe velocity&#45;&gt;jump -->
<g id="edge3" class="edge">
<title>pipe velocity&#45;&gt;jump</title>
<path fill="none" stroke="red" stroke-width="0.57" d="M284.5,-85.19C284.5,-78.94 284.5,-69.92 284.5,-60.79"/>
<polygon fill="red" stroke="red" stroke-width="0.57" points="288,-61.03 284.5,-51.03 281,-61.03 288,-61.03"/>
</g>
<!-- tilt -->
<g id="node5" class="node">
<title>tilt</title>
<polygon fill="lightgray" stroke="black" points="359.5,-103.5 333.5,-103.5 333.5,-85.5 359.5,-85.5 359.5,-103.5"/>
<text text-anchor="middle" x="346.5" y="-92.3" font-family="Times,serif" font-size="9.00">tilt</text>
</g>
<!-- tilt&#45;&gt;jump -->
<g id="edge4" class="edge">
<title>tilt&#45;&gt;jump</title>
<path fill="none" stroke="red" stroke-width="0.25" d="M338.9,-85.19C331.21,-76.78 318.92,-63.36 307.97,-51.39"/>
<polygon fill="red" stroke="red" stroke-width="0.25" points="310.61,-49.09 301.28,-44.08 305.44,-53.82 310.61,-49.09"/>
</g>
<!-- bird velocity -->
<g id="node6" class="node">
<title>bird velocity</title>
<polygon fill="lightgray" stroke="black" points="439,-103.5 378,-103.5 378,-85.5 439,-85.5 439,-103.5"/>
<text text-anchor="middle" x="408.5" y="-92.3" font-family="Times,serif" font-size="9.00">bird velocity</text>
</g>
<!-- bird velocity&#45;&gt;jump -->
<g id="edge5" class="edge">
<title>bird velocity&#45;&gt;jump</title>
<path fill="none" stroke="red" stroke-width="0.11" d="M393.05,-85.05C373.62,-74.44 339.82,-55.97 315.09,-42.46"/>
<polygon fill="red" stroke="red" stroke-width="0.11" points="317.03,-39.53 306.57,-37.81 313.67,-45.67 317.03,-39.53"/>
</g>
</g>
</svg>
