<?xml version="1.0" encoding="UTF-8" standalone="no"?>
<!DOCTYPE svg PUBLIC "-//W3C//DTD SVG 1.1//EN"
 "http://www.w3.org/Graphics/SVG/1.1/DTD/svg11.dtd">
<!-- Generated by graphviz version 7.1.0 (20230121.1956)
 -->
<!-- Pages: 1 -->
<svg width="448pt" height="111pt"
 viewBox="0.00 0.00 447.50 111.50" xmlns="http://www.w3.org/2000/svg" xmlns:xlink="http://www.w3.org/1999/xlink">
<g id="graph0" class="graph" transform="scale(1 1) rotate(0) translate(4 107.5)">
<polygon fill="white" stroke="none" points="-4,4 -4,-107.5 443.5,-107.5 443.5,4 -4,4"/>
<!-- x&#45;distance -->
<g id="node1" class="node">
<title>x&#45;distance</title>
<polygon fill="lightgray" stroke="black" points="53,-103.5 0,-103.5 0,-85.5 53,-85.5 53,-103.5"/>
<text text-anchor="middle" x="26.5" y="-92.3" font-family="Times,serif" font-size="9.00">x&#45;distance</text>
</g>
<!-- top y&#45;distance -->
<g id="node2" class="node">
<title>top y&#45;distance</title>
<polygon fill="lightgray" stroke="black" points="137.5,-103.5 71.5,-103.5 71.5,-85.5 137.5,-85.5 137.5,-103.5"/>
<text text-anchor="middle" x="104.5" y="-92.3" font-family="Times,serif" font-size="9.00">top y&#45;distance</text>
</g>
<!-- jump -->
<g id="node7" class="node">
<title>jump</title>
<ellipse fill="lightblue" stroke="black" cx="239.5" cy="-24.75" rx="25" ry="25"/>
<text text-anchor="middle" x="239.5" y="-22.55" font-family="Times,serif" font-size="9.00">jump</text>
</g>
<!-- top y&#45;distance&#45;&gt;jump -->
<g id="edge1" class="edge">
<title>top y&#45;distance&#45;&gt;jump</title>
<path fill="none" stroke="green" stroke-width="0.5" d="M121.32,-85.05C142.98,-74.19 181.03,-55.09 208.11,-41.5"/>
<polygon fill="green" stroke="green" stroke-width="0.5" points="209.49,-44.73 216.86,-37.11 206.35,-38.47 209.49,-44.73"/>
</g>
<!-- bottom y&#45;distance -->
<g id="node3" class="node">
<title>bottom y&#45;distance</title>
<polygon fill="lightgray" stroke="black" points="235.5,-103.5 155.5,-103.5 155.5,-85.5 235.5,-85.5 235.5,-103.5"/>
<text text-anchor="middle" x="195.5" y="-92.3" font-family="Times,serif" font-size="9.00">bottom y&#45;distance</text>
</g>
<!-- bottom y&#45;distance&#45;&gt;jump -->
<g id="edge2" class="edge">
<title>bottom y&#45;distance&#45;&gt;jump</title>
<path fill="none" stroke="red" stroke-width="0.74" d="M200.9,-85.19C205.72,-77.76 213.1,-66.4 220.12,-55.59"/>
<polygon fill="red" stroke="red" stroke-width="0.74" points="223,-57.59 225.51,-47.29 217.12,-53.77 223,-57.59"/>
</g>
<!-- pipe velocity -->
<g id="node4" class="node">
<title>pipe velocity</title>
<polygon fill="lightgray" stroke="black" points="315.5,-103.5 253.5,-103.5 253.5,-85.5 315.5,-85.5 315.5,-103.5"/>
<text text-anchor="middle" x="284.5" y="-92.3" font-family="Times,serif" font-size="9.00">pipe velocity</text>
</g>
<!-- pipe velocity&#45;&gt;jump -->
<g id="edge3" class="edge">
<title>pipe velocity&#45;&gt;jump</title>
<path fill="none" stroke="green" stroke-width="0.25" d="M278.98,-85.19C273.91,-77.55 266.08,-65.76 258.73,-54.69"/>
<polygon fill="green" stroke="green" stroke-width="0.25" points="261.65,-52.77 253.2,-46.38 255.82,-56.65 261.65,-52.77"/>
</g>
<!-- tilt -->
<g id="node5" class="node">
<title>tilt</title>
<polygon fill="lightgray" stroke="black" points="439.5,-103.5 413.5,-103.5 413.5,-85.5 439.5,-85.5 439.5,-103.5"/>
<text text-anchor="middle" x="426.5" y="-92.3" font-family="Times,serif" font-size="9.00">tilt</text>
</g>
<!-- bird velocity -->
<g id="node6" class="node">
<title>bird velocity</title>
<polygon fill="lightgray" stroke="black" points="395,-103.5 334,-103.5 334,-85.5 395,-85.5 395,-103.5"/>
<text text-anchor="middle" x="364.5" y="-92.3" font-family="Times,serif" font-size="9.00">bird velocity</text>
</g>
<!-- bird velocity&#45;&gt;jump -->
<g id="edge4" class="edge">
<title>bird velocity&#45;&gt;jump</title>
<path fill="none" stroke="green" stroke-width="0.2" d="M348.92,-85.05C329.22,-74.38 294.86,-55.75 269.89,-42.22"/>
<polygon fill="green" stroke="green" stroke-width="0.2" points="271.88,-39.32 261.42,-37.63 268.54,-45.47 271.88,-39.32"/>
</g>
</g>
</svg>
